<mxfile host="app.diagrams.net" modified="2021-09-02T17:54:08.705Z" agent="5.0 (Windows NT 10.0; Win64; x64) AppleWebKit/537.36 (KHTML, like Gecko) Chrome/92.0.4515.159 Safari/537.36 Edg/92.0.902.84" etag="a72hOzunaCG5hGgE76rr" version="15.0.6" type="github">
  <diagram id="jRZEUsAJQy-xiayxoJLQ" name="Page-1">
    <mxGraphModel dx="1038" dy="588" grid="1" gridSize="10" guides="1" tooltips="1" connect="1" arrows="1" fold="1" page="1" pageScale="1" pageWidth="850" pageHeight="1100" math="0" shadow="0">
      <root>
        <mxCell id="0" />
        <mxCell id="1" parent="0" />
        <mxCell id="TZNx0XlO6fBwTobmVrrd-3" value="" style="edgeStyle=orthogonalEdgeStyle;rounded=0;orthogonalLoop=1;jettySize=auto;html=1;" edge="1" parent="1" source="TZNx0XlO6fBwTobmVrrd-1" target="TZNx0XlO6fBwTobmVrrd-2">
          <mxGeometry relative="1" as="geometry" />
        </mxCell>
        <mxCell id="TZNx0XlO6fBwTobmVrrd-1" value="" style="shape=image;verticalLabelPosition=bottom;labelBackgroundColor=#ffffff;verticalAlign=top;aspect=fixed;imageAspect=0;image=data:image/svg+xml,PHN2ZyB4bWxuczpkYz0iaHR0cDovL3B1cmwub3JnL2RjL2VsZW1lbnRzLzEuMS8iIHhtbG5zOmNjPSJodHRwOi8vY3JlYXRpdmVjb21tb25zLm9yZy9ucyMiIHhtbG5zOnJkZj0iaHR0cDovL3d3dy53My5vcmcvMTk5OS8wMi8yMi1yZGYtc3ludGF4LW5zIyIgeG1sbnM6c3ZnPSJodHRwOi8vd3d3LnczLm9yZy8yMDAwL3N2ZyIgeG1sbnM9Imh0dHA6Ly93d3cudzMub3JnLzIwMDAvc3ZnIiB4bWxuczpzb2RpcG9kaT0iaHR0cDovL3NvZGlwb2RpLnNvdXJjZWZvcmdlLm5ldC9EVEQvc29kaXBvZGktMC5kdGQiIHhtbG5zOmlua3NjYXBlPSJodHRwOi8vd3d3Lmlua3NjYXBlLm9yZy9uYW1lc3BhY2VzL2lua3NjYXBlIiB2ZXJzaW9uPSIxLjEiIGlkPSJzdmcyNjc0NiIgaW5rc2NhcGU6dmVyc2lvbj0iMC45Mi4zICgyNDA1NTQ2LCAyMDE4LTAzLTExKSIgc29kaXBvZGk6ZG9jbmFtZT0iYXp1cmVfc2VydmljZV9idXNfcXVldWVzLnN2ZyIgeD0iMHB4IiB5PSIwcHgiIHZpZXdCb3g9IjAgMCAzNy41IDM3LjUiIHN0eWxlPSJlbmFibGUtYmFja2dyb3VuZDpuZXcgMCAwIDM3LjUgMzcuNTsiIHhtbDpzcGFjZT0icHJlc2VydmUiPjxtZXRhZGF0YSBpZD0ibWV0YWRhdGE0MzYwMCI+PHJkZjpSREY+PGNjOldvcmsgcmRmOmFib3V0PSIiPjxkYzpmb3JtYXQ+aW1hZ2Uvc3ZnK3htbDwvZGM6Zm9ybWF0PjxkYzp0eXBlIHJkZjpyZXNvdXJjZT0iaHR0cDovL3B1cmwub3JnL2RjL2RjbWl0eXBlL1N0aWxsSW1hZ2UiLz48ZGM6dGl0bGUvPjwvY2M6V29yaz48L3JkZjpSREY+PC9tZXRhZGF0YT48ZGVmcyBpZD0iZGVmczQzNTk4Ii8+JiN4YTs8ZmlsdGVyIGlkPSJmaWx0ZXJfMiI+JiN4YTsJPGZlR2F1c3NpYW5CbHVyIGlkPSJmZUdhdXNzaWFuQmx1cjI2NjcxIiBzdGREZXZpYXRpb249IjIiLz4mI3hhOzwvZmlsdGVyPiYjeGE7PHNvZGlwb2RpOm5hbWVkdmlldyBib3JkZXJjb2xvcj0iIzY2NjY2NiIgYm9yZGVyb3BhY2l0eT0iMSIgZml0LW1hcmdpbi1ib3R0b209IjAiIGZpdC1tYXJnaW4tbGVmdD0iMCIgZml0LW1hcmdpbi1yaWdodD0iMCIgZml0LW1hcmdpbi10b3A9IjAiIGdyaWR0b2xlcmFuY2U9IjEwIiBndWlkZXRvbGVyYW5jZT0iMTAiIGlkPSJuYW1lZHZpZXcyNjc0OCIgaW5rc2NhcGU6Y3VycmVudC1sYXllcj0ic3ZnMjY3NDYiIGlua3NjYXBlOmN4PSIxNy43ODUyMTEiIGlua3NjYXBlOmN5PSIxOC40NzM2NTgiIGlua3NjYXBlOnBhZ2VvcGFjaXR5PSIwIiBpbmtzY2FwZTpwYWdlc2hhZG93PSIyIiBpbmtzY2FwZTp3aW5kb3ctaGVpZ2h0PSIxMDE3IiBpbmtzY2FwZTp3aW5kb3ctbWF4aW1pemVkPSIxIiBpbmtzY2FwZTp3aW5kb3ctd2lkdGg9IjE5MjAiIGlua3NjYXBlOndpbmRvdy14PSItOCIgaW5rc2NhcGU6d2luZG93LXk9Ii04IiBpbmtzY2FwZTp6b29tPSIxNC45NDgyNjgiIG9iamVjdHRvbGVyYW5jZT0iMTAiIHBhZ2Vjb2xvcj0iI2ZmZmZmZiIgc2hvd2dyaWQ9ImZhbHNlIj4mI3hhOwk8L3NvZGlwb2RpOm5hbWVkdmlldz4mI3hhOyYjeGE7PHBhdGggaWQ9InBhdGgyNjY4NCIgaW5rc2NhcGU6Y29ubmVjdG9yLWN1cnZhdHVyZT0iMCIgc3R5bGU9ImZpbGw6IzAwNzJDNjsiIGQ9Ik0wLjYyLDBDMC4yNSwwLDAsMC4yNSwwLDAuNjJ2Ny41ICBDMCw4LjUsMC4yNSw4Ljc1LDAuNjIsOC43NWgzLjc1QzQuNzUsOC43NSw1LDguNSw1LDguMTJWNWgyNy41djMuMTNjMCwwLjM3LDAuMjUsMC42MiwwLjc1LDAuNjJoMy42MmMwLjM4LDAsMC42My0wLjI1LDAuNjMtMC42MiAgVjQuMzhWMC42M0MzNy41LDAuMjUsMzcuMjUsMCwzNi44OCwwSDAuNjJ6Ii8+JiN4YTsmI3hhOzxwYXRoIGlkPSJwYXRoMjY2OTIiIGlua3NjYXBlOmNvbm5lY3Rvci1jdXJ2YXR1cmU9IjAiIHN0eWxlPSJmaWxsOiMwMDcyQzY7IiBkPSJNMzYuODgsMzcuNWMwLjM3LDAsMC42Mi0wLjI1LDAuNjItMC42MlYyOS41ICBjMC0wLjM3LTAuMjUtMC42Mi0wLjYyLTAuNjJoLTMuNjNjLTAuMzcsMC0wLjYyLDAuMjUtMC42MiwwLjYydjNINXYtMy4xMmMwLTAuMzgtMC4yNS0wLjYzLTAuNzUtMC42M0gwLjYyQzAuMjUsMjguNzUsMCwyOSwwLDI5LjUgIHY3LjM4YzAsMC4zNywwLjI1LDAuNjIsMC42MiwwLjYySDM2Ljg4eiIvPiYjeGE7JiN4YTs8cGF0aCBpZD0icGF0aDI2NzAwIiBpbmtzY2FwZTpjb25uZWN0b3ItY3VydmF0dXJlPSIwIiBzdHlsZT0iZmlsbDojNTlCNEQ5OyIgZD0iTTkuMjQsMTkuMjhjLTAuNjMsMC42My0xLjQ3LDAuOTgtMi4zNiwwLjk4ICBzLTEuNzMtMC4zNS0yLjM2LTAuOThMMCwxNC43NnY5LjE5aDEzLjc3di05LjE5TDkuMjQsMTkuMjh6Ii8+JiN4YTs8ZyBpZD0ic2hhZG93MjczLTE4IiB0cmFuc2Zvcm09InRyYW5zbGF0ZSgwLjM0NTYsLTIxLjkzODEpIj4mI3hhOwk8ZyBpZD0icGF0aDI2NzA1IiBpbmtzY2FwZTpjb25uZWN0b3ItY3VydmF0dXJlPSIwIiBzdHlsZT0iZmlsdGVyOnVybCgjZmlsdGVyXzIpOyI+JiN4YTsJCTxwYXRoIHN0eWxlPSJvcGFjaXR5OjAuMjI7ZmlsbDojNUI5QkQ1OyIgZD0iTTYuODgsNDMuNWMwLjcyLDAsMS4zOC0wLjI4LDEuODktMC43OGw1LTV2LTAuMjZIMHYwLjI2bDUsNSAgICBDNS41LDQzLjIyLDYuMTcsNDMuNSw2Ljg4LDQzLjV6IiBpZD0icGF0aDQzNTcyIi8+JiN4YTsJPC9nPiYjeGE7PC9nPiYjeGE7PHBhdGggaWQ9InBhdGgyNjcwOCIgaW5rc2NhcGU6Y29ubmVjdG9yLWN1cnZhdHVyZT0iMCIgc3R5bGU9ImZpbGw6IzU5QjREOTsiIGQ9Ik02Ljg4LDE5LjU5YzAuNzIsMCwxLjM4LTAuMjgsMS44OS0wLjc4bDUtNXYtMC4yNiAgSDB2MC4yNmw1LDVDNS41LDE5LjMxLDYuMTcsMTkuNTksNi44OCwxOS41OXoiLz4mI3hhOyYjeGE7PHBhdGggaWQ9InBhdGgyNjcxNiIgaW5rc2NhcGU6Y29ubmVjdG9yLWN1cnZhdHVyZT0iMCIgc3R5bGU9ImZpbGw6IzU5QjREOTsiIGQ9Ik0zMi45NywxOS4yOGMtMC42MywwLjYzLTEuNDcsMC45OC0yLjM2LDAuOTggIGMtMC44OSwwLTEuNzMtMC4zNS0yLjM2LTAuOThsLTQuNTItNC41MnY5LjE5SDM3LjV2LTkuMTlMMzIuOTcsMTkuMjh6Ii8+JiN4YTs8ZyBpZD0ic2hhZG93Mjc1LTI4IiB0cmFuc2Zvcm09InRyYW5zbGF0ZSgyNC4wODAxLC0yMS45MzgxKSI+JiN4YTsJPGcgaWQ9InBhdGgyNjcyMSIgaW5rc2NhcGU6Y29ubmVjdG9yLWN1cnZhdHVyZT0iMCIgc3R5bGU9ImZpbHRlcjp1cmwoI2ZpbHRlcl8yKTsiPiYjeGE7CQk8cGF0aCBzdHlsZT0ib3BhY2l0eTowLjIyO2ZpbGw6IzVCOUJENTsiIGQ9Ik02Ljg4LDQzLjVjMC43MiwwLDEuMzgtMC4yOCwxLjg5LTAuNzhsNS01di0wLjI2SDB2MC4yNmw1LDUgICAgQzUuNSw0My4yMiw2LjE3LDQzLjUsNi44OCw0My41eiIgaWQ9InBhdGg0MzU4MiIvPiYjeGE7CTwvZz4mI3hhOzwvZz4mI3hhOzxwYXRoIGlkPSJwYXRoMjY3MjQiIGlua3NjYXBlOmNvbm5lY3Rvci1jdXJ2YXR1cmU9IjAiIHN0eWxlPSJmaWxsOiM1OUI0RDk7IiBkPSJNMzAuNjEsMTkuNTljMC43MiwwLDEuMzgtMC4yOCwxLjg5LTAuNzhsNS01di0wLjI2ICBIMjMuNzN2MC4yNmw1LDVDMjkuMjMsMTkuMzEsMjkuOSwxOS41OSwzMC42MSwxOS41OXoiLz4mI3hhOyYjeGE7PHJlY3QgaWQ9InJlY3QyNjczMiIgeD0iMTkuMzYiIHk9IjE3LjgzIiBzdHlsZT0iZmlsbDojQjhENDMyOyIgd2lkdGg9IjIuMzEiIGhlaWdodD0iMS44MyIvPiYjeGE7JiN4YTs8cmVjdCBpZD0icmVjdDI2NzQwIiB4PSIxNS43OCIgeT0iMTcuODMiIHN0eWxlPSJmaWxsOiNCOEQ0MzI7IiB3aWR0aD0iMi40NSIgaGVpZ2h0PSIxLjgzIi8+JiN4YTs8L3N2Zz4=;" vertex="1" parent="1">
          <mxGeometry x="150" y="100" width="38" height="38" as="geometry" />
        </mxCell>
        <mxCell id="TZNx0XlO6fBwTobmVrrd-5" value="" style="edgeStyle=orthogonalEdgeStyle;rounded=0;orthogonalLoop=1;jettySize=auto;html=1;" edge="1" parent="1" source="TZNx0XlO6fBwTobmVrrd-2" target="TZNx0XlO6fBwTobmVrrd-4">
          <mxGeometry relative="1" as="geometry" />
        </mxCell>
        <mxCell id="TZNx0XlO6fBwTobmVrrd-2" value="" style="shape=image;verticalLabelPosition=bottom;labelBackgroundColor=#ffffff;verticalAlign=top;aspect=fixed;imageAspect=0;image=data:image/svg+xml,PHN2ZyB4bWxuczpkYz0iaHR0cDovL3B1cmwub3JnL2RjL2VsZW1lbnRzLzEuMS8iIHhtbG5zOmNjPSJodHRwOi8vY3JlYXRpdmVjb21tb25zLm9yZy9ucyMiIHhtbG5zOnJkZj0iaHR0cDovL3d3dy53My5vcmcvMTk5OS8wMi8yMi1yZGYtc3ludGF4LW5zIyIgeG1sbnM6c3ZnPSJodHRwOi8vd3d3LnczLm9yZy8yMDAwL3N2ZyIgeG1sbnM9Imh0dHA6Ly93d3cudzMub3JnLzIwMDAvc3ZnIiB4bWxuczpzb2RpcG9kaT0iaHR0cDovL3NvZGlwb2RpLnNvdXJjZWZvcmdlLm5ldC9EVEQvc29kaXBvZGktMC5kdGQiIHhtbG5zOmlua3NjYXBlPSJodHRwOi8vd3d3Lmlua3NjYXBlLm9yZy9uYW1lc3BhY2VzL2lua3NjYXBlIiB2ZXJzaW9uPSIxLjEiIGlkPSJzdmcyNjc0NiIgaW5rc2NhcGU6dmVyc2lvbj0iMC45Mi4zICgyNDA1NTQ2LCAyMDE4LTAzLTExKSIgc29kaXBvZGk6ZG9jbmFtZT0iYXp1cmVfc2VydmljZV9idXNfcXVldWVzLnN2ZyIgeD0iMHB4IiB5PSIwcHgiIHZpZXdCb3g9IjAgMCAzNy41IDM3LjUiIHN0eWxlPSJlbmFibGUtYmFja2dyb3VuZDpuZXcgMCAwIDM3LjUgMzcuNTsiIHhtbDpzcGFjZT0icHJlc2VydmUiPjxtZXRhZGF0YSBpZD0ibWV0YWRhdGE0MzYwMCI+PHJkZjpSREY+PGNjOldvcmsgcmRmOmFib3V0PSIiPjxkYzpmb3JtYXQ+aW1hZ2Uvc3ZnK3htbDwvZGM6Zm9ybWF0PjxkYzp0eXBlIHJkZjpyZXNvdXJjZT0iaHR0cDovL3B1cmwub3JnL2RjL2RjbWl0eXBlL1N0aWxsSW1hZ2UiLz48ZGM6dGl0bGUvPjwvY2M6V29yaz48L3JkZjpSREY+PC9tZXRhZGF0YT48ZGVmcyBpZD0iZGVmczQzNTk4Ii8+JiN4YTs8ZmlsdGVyIGlkPSJmaWx0ZXJfMiI+JiN4YTsJPGZlR2F1c3NpYW5CbHVyIGlkPSJmZUdhdXNzaWFuQmx1cjI2NjcxIiBzdGREZXZpYXRpb249IjIiLz4mI3hhOzwvZmlsdGVyPiYjeGE7PHNvZGlwb2RpOm5hbWVkdmlldyBib3JkZXJjb2xvcj0iIzY2NjY2NiIgYm9yZGVyb3BhY2l0eT0iMSIgZml0LW1hcmdpbi1ib3R0b209IjAiIGZpdC1tYXJnaW4tbGVmdD0iMCIgZml0LW1hcmdpbi1yaWdodD0iMCIgZml0LW1hcmdpbi10b3A9IjAiIGdyaWR0b2xlcmFuY2U9IjEwIiBndWlkZXRvbGVyYW5jZT0iMTAiIGlkPSJuYW1lZHZpZXcyNjc0OCIgaW5rc2NhcGU6Y3VycmVudC1sYXllcj0ic3ZnMjY3NDYiIGlua3NjYXBlOmN4PSIxNy43ODUyMTEiIGlua3NjYXBlOmN5PSIxOC40NzM2NTgiIGlua3NjYXBlOnBhZ2VvcGFjaXR5PSIwIiBpbmtzY2FwZTpwYWdlc2hhZG93PSIyIiBpbmtzY2FwZTp3aW5kb3ctaGVpZ2h0PSIxMDE3IiBpbmtzY2FwZTp3aW5kb3ctbWF4aW1pemVkPSIxIiBpbmtzY2FwZTp3aW5kb3ctd2lkdGg9IjE5MjAiIGlua3NjYXBlOndpbmRvdy14PSItOCIgaW5rc2NhcGU6d2luZG93LXk9Ii04IiBpbmtzY2FwZTp6b29tPSIxNC45NDgyNjgiIG9iamVjdHRvbGVyYW5jZT0iMTAiIHBhZ2Vjb2xvcj0iI2ZmZmZmZiIgc2hvd2dyaWQ9ImZhbHNlIj4mI3hhOwk8L3NvZGlwb2RpOm5hbWVkdmlldz4mI3hhOyYjeGE7PHBhdGggaWQ9InBhdGgyNjY4NCIgaW5rc2NhcGU6Y29ubmVjdG9yLWN1cnZhdHVyZT0iMCIgc3R5bGU9ImZpbGw6IzAwNzJDNjsiIGQ9Ik0wLjYyLDBDMC4yNSwwLDAsMC4yNSwwLDAuNjJ2Ny41ICBDMCw4LjUsMC4yNSw4Ljc1LDAuNjIsOC43NWgzLjc1QzQuNzUsOC43NSw1LDguNSw1LDguMTJWNWgyNy41djMuMTNjMCwwLjM3LDAuMjUsMC42MiwwLjc1LDAuNjJoMy42MmMwLjM4LDAsMC42My0wLjI1LDAuNjMtMC42MiAgVjQuMzhWMC42M0MzNy41LDAuMjUsMzcuMjUsMCwzNi44OCwwSDAuNjJ6Ii8+JiN4YTsmI3hhOzxwYXRoIGlkPSJwYXRoMjY2OTIiIGlua3NjYXBlOmNvbm5lY3Rvci1jdXJ2YXR1cmU9IjAiIHN0eWxlPSJmaWxsOiMwMDcyQzY7IiBkPSJNMzYuODgsMzcuNWMwLjM3LDAsMC42Mi0wLjI1LDAuNjItMC42MlYyOS41ICBjMC0wLjM3LTAuMjUtMC42Mi0wLjYyLTAuNjJoLTMuNjNjLTAuMzcsMC0wLjYyLDAuMjUtMC42MiwwLjYydjNINXYtMy4xMmMwLTAuMzgtMC4yNS0wLjYzLTAuNzUtMC42M0gwLjYyQzAuMjUsMjguNzUsMCwyOSwwLDI5LjUgIHY3LjM4YzAsMC4zNywwLjI1LDAuNjIsMC42MiwwLjYySDM2Ljg4eiIvPiYjeGE7JiN4YTs8cGF0aCBpZD0icGF0aDI2NzAwIiBpbmtzY2FwZTpjb25uZWN0b3ItY3VydmF0dXJlPSIwIiBzdHlsZT0iZmlsbDojNTlCNEQ5OyIgZD0iTTkuMjQsMTkuMjhjLTAuNjMsMC42My0xLjQ3LDAuOTgtMi4zNiwwLjk4ICBzLTEuNzMtMC4zNS0yLjM2LTAuOThMMCwxNC43NnY5LjE5aDEzLjc3di05LjE5TDkuMjQsMTkuMjh6Ii8+JiN4YTs8ZyBpZD0ic2hhZG93MjczLTE4IiB0cmFuc2Zvcm09InRyYW5zbGF0ZSgwLjM0NTYsLTIxLjkzODEpIj4mI3hhOwk8ZyBpZD0icGF0aDI2NzA1IiBpbmtzY2FwZTpjb25uZWN0b3ItY3VydmF0dXJlPSIwIiBzdHlsZT0iZmlsdGVyOnVybCgjZmlsdGVyXzIpOyI+JiN4YTsJCTxwYXRoIHN0eWxlPSJvcGFjaXR5OjAuMjI7ZmlsbDojNUI5QkQ1OyIgZD0iTTYuODgsNDMuNWMwLjcyLDAsMS4zOC0wLjI4LDEuODktMC43OGw1LTV2LTAuMjZIMHYwLjI2bDUsNSAgICBDNS41LDQzLjIyLDYuMTcsNDMuNSw2Ljg4LDQzLjV6IiBpZD0icGF0aDQzNTcyIi8+JiN4YTsJPC9nPiYjeGE7PC9nPiYjeGE7PHBhdGggaWQ9InBhdGgyNjcwOCIgaW5rc2NhcGU6Y29ubmVjdG9yLWN1cnZhdHVyZT0iMCIgc3R5bGU9ImZpbGw6IzU5QjREOTsiIGQ9Ik02Ljg4LDE5LjU5YzAuNzIsMCwxLjM4LTAuMjgsMS44OS0wLjc4bDUtNXYtMC4yNiAgSDB2MC4yNmw1LDVDNS41LDE5LjMxLDYuMTcsMTkuNTksNi44OCwxOS41OXoiLz4mI3hhOyYjeGE7PHBhdGggaWQ9InBhdGgyNjcxNiIgaW5rc2NhcGU6Y29ubmVjdG9yLWN1cnZhdHVyZT0iMCIgc3R5bGU9ImZpbGw6IzU5QjREOTsiIGQ9Ik0zMi45NywxOS4yOGMtMC42MywwLjYzLTEuNDcsMC45OC0yLjM2LDAuOTggIGMtMC44OSwwLTEuNzMtMC4zNS0yLjM2LTAuOThsLTQuNTItNC41MnY5LjE5SDM3LjV2LTkuMTlMMzIuOTcsMTkuMjh6Ii8+JiN4YTs8ZyBpZD0ic2hhZG93Mjc1LTI4IiB0cmFuc2Zvcm09InRyYW5zbGF0ZSgyNC4wODAxLC0yMS45MzgxKSI+JiN4YTsJPGcgaWQ9InBhdGgyNjcyMSIgaW5rc2NhcGU6Y29ubmVjdG9yLWN1cnZhdHVyZT0iMCIgc3R5bGU9ImZpbHRlcjp1cmwoI2ZpbHRlcl8yKTsiPiYjeGE7CQk8cGF0aCBzdHlsZT0ib3BhY2l0eTowLjIyO2ZpbGw6IzVCOUJENTsiIGQ9Ik02Ljg4LDQzLjVjMC43MiwwLDEuMzgtMC4yOCwxLjg5LTAuNzhsNS01di0wLjI2SDB2MC4yNmw1LDUgICAgQzUuNSw0My4yMiw2LjE3LDQzLjUsNi44OCw0My41eiIgaWQ9InBhdGg0MzU4MiIvPiYjeGE7CTwvZz4mI3hhOzwvZz4mI3hhOzxwYXRoIGlkPSJwYXRoMjY3MjQiIGlua3NjYXBlOmNvbm5lY3Rvci1jdXJ2YXR1cmU9IjAiIHN0eWxlPSJmaWxsOiM1OUI0RDk7IiBkPSJNMzAuNjEsMTkuNTljMC43MiwwLDEuMzgtMC4yOCwxLjg5LTAuNzhsNS01di0wLjI2ICBIMjMuNzN2MC4yNmw1LDVDMjkuMjMsMTkuMzEsMjkuOSwxOS41OSwzMC42MSwxOS41OXoiLz4mI3hhOyYjeGE7PHJlY3QgaWQ9InJlY3QyNjczMiIgeD0iMTkuMzYiIHk9IjE3LjgzIiBzdHlsZT0iZmlsbDojQjhENDMyOyIgd2lkdGg9IjIuMzEiIGhlaWdodD0iMS44MyIvPiYjeGE7JiN4YTs8cmVjdCBpZD0icmVjdDI2NzQwIiB4PSIxNS43OCIgeT0iMTcuODMiIHN0eWxlPSJmaWxsOiNCOEQ0MzI7IiB3aWR0aD0iMi40NSIgaGVpZ2h0PSIxLjgzIi8+JiN4YTs8L3N2Zz4=;" vertex="1" parent="1">
          <mxGeometry x="268" y="100" width="38" height="38" as="geometry" />
        </mxCell>
        <mxCell id="TZNx0XlO6fBwTobmVrrd-4" value="" style="shape=image;verticalLabelPosition=bottom;labelBackgroundColor=#ffffff;verticalAlign=top;aspect=fixed;imageAspect=0;image=data:image/svg+xml,PHN2ZyB4bWxuczpjYz0iaHR0cDovL2NyZWF0aXZlY29tbW9ucy5vcmcvbnMjIiB4bWxuczpkYz0iaHR0cDovL3B1cmwub3JnL2RjL2VsZW1lbnRzLzEuMS8iIHhtbG5zOmlua3NjYXBlPSJodHRwOi8vd3d3Lmlua3NjYXBlLm9yZy9uYW1lc3BhY2VzL2lua3NjYXBlIiB4bWxuczpyZGY9Imh0dHA6Ly93d3cudzMub3JnLzE5OTkvMDIvMjItcmRmLXN5bnRheC1ucyMiIHhtbG5zOnNvZGlwb2RpPSJodHRwOi8vc29kaXBvZGkuc291cmNlZm9yZ2UubmV0L0RURC9zb2RpcG9kaS0wLmR0ZCIgeG1sbnM6c3ZnPSJodHRwOi8vd3d3LnczLm9yZy8yMDAwL3N2ZyIgeG1sbnM9Imh0dHA6Ly93d3cudzMub3JnLzIwMDAvc3ZnIiB4bWxuczp4bGluaz0iaHR0cDovL3d3dy53My5vcmcvMTk5OS94bGluayIgdmVyc2lvbj0iMS4xIiBpZD0ic3ZnMjQxMjQiIHg9IjBweCIgeT0iMHB4IiB2aWV3Qm94PSIwIDAgMzIuMDUgMjkuMSIgc3R5bGU9ImVuYWJsZS1iYWNrZ3JvdW5kOm5ldyAwIDAgMzIuMDUgMjkuMTsiIHhtbDpzcGFjZT0icHJlc2VydmUiPiYjeGE7PHNvZGlwb2RpOm5hbWVkdmlldyBib3JkZXJjb2xvcj0iIzY2NjY2NiIgYm9yZGVyb3BhY2l0eT0iMSIgZml0LW1hcmdpbi1ib3R0b209IjAiIGZpdC1tYXJnaW4tbGVmdD0iMCIgZml0LW1hcmdpbi1yaWdodD0iMCIgZml0LW1hcmdpbi10b3A9IjAiIGdyaWR0b2xlcmFuY2U9IjEwIiBndWlkZXRvbGVyYW5jZT0iMTAiIGlkPSJuYW1lZHZpZXcyNDEyNiIgaW5rc2NhcGU6Y3VycmVudC1sYXllcj0ic3ZnMjQxMjQiIGlua3NjYXBlOmN4PSIyMC4wMTMxMzgiIGlua3NjYXBlOmN5PSItMTEuODI2ODA3IiBpbmtzY2FwZTpwYWdlb3BhY2l0eT0iMCIgaW5rc2NhcGU6cGFnZXNoYWRvdz0iMiIgaW5rc2NhcGU6d2luZG93LWhlaWdodD0iMTAxNyIgaW5rc2NhcGU6d2luZG93LW1heGltaXplZD0iMSIgaW5rc2NhcGU6d2luZG93LXdpZHRoPSIxOTIwIiBpbmtzY2FwZTp3aW5kb3cteD0iLTgiIGlua3NjYXBlOndpbmRvdy15PSItOCIgaW5rc2NhcGU6em9vbT0iNC44NDQ2ODU3IiBvYmplY3R0b2xlcmFuY2U9IjEwIiBwYWdlY29sb3I9IiNmZmZmZmYiIHNob3dncmlkPSJmYWxzZSI+JiN4YTsJPC9zb2RpcG9kaTpuYW1lZHZpZXc+JiN4YTs8ZyBpZD0iZzI0MTIyIiB0cmFuc2Zvcm09InRyYW5zbGF0ZSgtMTcuNDUxNTI4LC0wLjc0ODA4NSkiPiYjeGE7CTx0aXRsZSBpZD0idGl0bGUyNDA4MyI+UGFnZS0xPC90aXRsZT4mI3hhOwk8ZyBpZD0iZ3JvdXA2MjAtMSIgdHJhbnNmb3JtPSJ0cmFuc2xhdGUoMTcuNDQ5OCwtMzcuMjU1NSkiPiYjeGE7CQk8dGl0bGUgaWQ9InRpdGxlMjQwODUiPkF1dG9tYXRpb248L3RpdGxlPiYjeGE7CQk8ZyBpZD0ic2hhcGU2MjEtMiIgdHJhbnNmb3JtPSJyb3RhdGUoMTAsNS42MDAzMTE0LDYxLjc1NjAxMSkiPiYjeGE7CQkJPHRpdGxlIGlkPSJ0aXRsZTI0MDg3Ij5wYXRoMTk0MjwvdGl0bGU+JiN4YTsJCQk8cGF0aCBpZD0icGF0aDI0MDg5IiBpbmtzY2FwZTpjb25uZWN0b3ItY3VydmF0dXJlPSIwIiBzdHlsZT0iZmlsbC1ydWxlOmV2ZW5vZGQ7Y2xpcC1ydWxlOmV2ZW5vZGQ7ZmlsbDojRkZCOTAwOyIgZD0iICAgICBNNS40MSw2Ni44OWMwLjA2LDAuMTQsMC4yLDAuMjMsMC4zNSwwLjIybDAuNzUtMC4wOGMwLjE4LTAuMDUsMC4zLTAuMjIsMC4yOC0wLjQxTDYuNzYsNjUuN2MtMC4wNC0wLjI0LDAtMC40NSwwLjcxLTAuODcgICAgIGMwLjItMC4xLDAuNDQtMC4wOSwwLjYzLDAuMDRsMC44OCwwLjQ5YzAuMTMsMC4wNCwwLjI4LDAuMDEsMC4zOS0wLjA3bDAuNS0wLjY1YzAuMDctMC4xNiwwLjAyLTAuMzYtMC4xMy0wLjQ2bC0wLjY5LTAuNjcgICAgIGMtMC4xOC0wLjEzLTAuMjMtMC4zNy0wLjEzLTAuNTdjMCwwLDAuMi0wLjkxLDAuNTktMC45OWwwLjg1LTAuMTljMC4xNi0wLjA3LDAuMjctMC4yMywwLjI4LTAuNDFsLTAuMTQtMC44ICAgICBjLTAuMDMtMC4xNS0wLjE3LTAuMjUtMC4zMy0wLjIzYzAsMCwwLDAtMC4wMSwwbC0wLjkyLDAuMDNDOSw2MC4zOSw4LjQ4LDU5Ljc0LDguMzcsNTkuNjNjLTAuMDktMC4yMi0wLjA5LTAuNDcsMC0wLjY5bDAuNS0wLjc1ICAgICBjMC4xLTAuMTcsMC4wNy0wLjM4LTAuMDctMC41MWwtMC42NS0wLjM5Yy0wLjEzLTAuMTEtMC4zMi0wLjExLTAuNDYsMGwtMC42LDAuNzZDNi45NCw1OC4yMyw2LjYzLDU4LjQsNiw1OC4xNCAgICAgYzAsMC0wLjQ2LTAuMjgtMC41NC0wLjUxbC0wLjE4LTAuOTdjLTAuMDYtMC4xNC0wLjItMC4yMy0wLjM1LTAuMjJsLTAuODEsMC4xNGMtMC4xNSwwLjA0LTAuMjQsMC4xOS0wLjIxLDAuMzRjMCwwLDAsMCwwLDAgICAgIGwtMC4wNSwxLjAyYzAsMC4zNC0wLjU2LDAuNzEtMC42NywwLjgyYy0wLjIxLDAuMTQtMC40OCwwLjE0LTAuNjksMGwtMC44MS0wLjU1Yy0wLjE3LTAuMDUtMC4zNCwwLTAuNDYsMC4xM2wtMC41MSwwLjY1ICAgICBjLTAuMDQsMC4xNiwwLjAxLDAuMzQsMC4xMywwLjQ2bDAuNzEsMC42NmMwLjQxLDAuMzEsMC4xNywwLjc2LDAuMDgsMS4wOWMtMC4wMywwLjE3LTAuMSwwLjM1LTAuNSwwLjQybC0wLjkyLDAuMjUgICAgIGMtMC4xNCwwLjA2LTAuMjMsMC4yLTAuMjIsMC4zNWwwLjE0LDAuODFjMC4wMywwLjE0LDAuMTUsMC4yNSwwLjI5LDAuMjhsMC45OC0wLjA5YzAuMzQsMCwwLjQ1LDAuMSwwLjUyLDAuMjggICAgIGMwLjExLDAuMTYsMC4yMSwwLjMzLDAuMywwLjVjMC4xNiwwLjE3LDAuMTksMC40MiwwLjA3LDAuNjJsLTAuNTQsMC44MWMtMC4wNSwwLjE3LDAsMC4zNCwwLjEzLDAuNDZsMC41OSwwLjQ2ICAgICBjMC4xMywwLjExLDAuMzIsMC4xMSwwLjQ2LDBsMC42MS0wLjc2YzAuMTUtMC4xOCwwLjQtMC4yNSwwLjYyLTAuMThsMC41MiwwLjE1YzAuMjMsMCwwLjM1LDAuMTEsMC40NiwwLjQ2bDAuMjUsMC45Mkw1LjQxLDY2Ljg5ICAgICB6IE03LjI2LDYxLjU2YzAuMTIsMS4wNi0wLjYsMi4wNC0xLjY2LDIuMjJjLTEuMDIsMC4yLTItMC40Ni0yLjItMS40OGMwLDAsMCwwLDAsMGMwLTAuMDYtMC4wMS0wLjEyLTAuMDItMC4xOCAgICAgYy0wLjE0LTEuMDMsMC41Ny0xLjk5LDEuNi0yLjE2YzEuMDYtMC4yMSwyLjA4LDAuNDgsMi4yOSwxLjU0YzAsMCwwLDAsMCwwLjAxdjAuMDRMNy4yNiw2MS41NnoiLz4mI3hhOwkJCTxwYXRoIGlkPSJwYXRoMjQwOTEiIGlua3NjYXBlOmNvbm5lY3Rvci1jdXJ2YXR1cmU9IjAiIHN0eWxlPSJmaWxsOm5vbmU7IiBkPSJNNS40MSw2Ni44OWMwLjA2LDAuMTQsMC4yLDAuMjMsMC4zNSwwLjIyICAgICBsMC43NS0wLjA4YzAuMTgtMC4wNSwwLjMtMC4yMiwwLjI4LTAuNDFMNi43Niw2NS43Yy0wLjA0LTAuMjQsMC0wLjQ1LDAuNzEtMC44N2MwLjItMC4xLDAuNDQtMC4wOSwwLjYzLDAuMDRsMC44OCwwLjQ5ICAgICBjMC4xMywwLjA0LDAuMjgsMC4wMSwwLjM5LTAuMDdsMC41LTAuNjVjMC4wNy0wLjE2LDAuMDItMC4zNi0wLjEzLTAuNDZsLTAuNjktMC42N2MtMC4xOC0wLjEzLTAuMjMtMC4zNy0wLjEzLTAuNTcgICAgIGMwLDAsMC4yLTAuOTEsMC41OS0wLjk5bDAuODUtMC4xOWMwLjE2LTAuMDcsMC4yNy0wLjIzLDAuMjgtMC40MWwtMC4xNC0wLjhjLTAuMDMtMC4xNS0wLjE3LTAuMjUtMC4zMy0wLjIzYzAsMCwwLDAtMC4wMSwwICAgICBsLTAuOTIsMC4wM0M5LDYwLjM5LDguNDgsNTkuNzQsOC4zNyw1OS42M2MtMC4wOS0wLjIyLTAuMDktMC40NywwLTAuNjlsMC41LTAuNzVjMC4xLTAuMTcsMC4wNy0wLjM4LTAuMDctMC41MWwtMC42NS0wLjM5ICAgICBjLTAuMTMtMC4xMS0wLjMyLTAuMTEtMC40NiwwbC0wLjYsMC43NkM2Ljk0LDU4LjIzLDYuNjMsNTguNCw2LDU4LjE0YzAsMC0wLjQ2LTAuMjgtMC41NC0wLjUxbC0wLjE4LTAuOTcgICAgIGMtMC4wNi0wLjE0LTAuMi0wLjIzLTAuMzUtMC4yMmwtMC44MSwwLjE0Yy0wLjE1LDAuMDQtMC4yNCwwLjE5LTAuMjEsMC4zNGMwLDAsMCwwLDAsMGwtMC4wNSwxLjAyYzAsMC4zNC0wLjU2LDAuNzEtMC42NywwLjgyICAgICBjLTAuMjEsMC4xNC0wLjQ4LDAuMTQtMC42OSwwbC0wLjgxLTAuNTVjLTAuMTctMC4wNS0wLjM0LDAtMC40NiwwLjEzbC0wLjUxLDAuNjVjLTAuMDQsMC4xNiwwLjAxLDAuMzQsMC4xMywwLjQ2bDAuNzEsMC42NiAgICAgYzAuNDEsMC4zMSwwLjE3LDAuNzYsMC4wOCwxLjA5Yy0wLjAzLDAuMTctMC4xLDAuMzUtMC41LDAuNDJsLTAuOTIsMC4yNWMtMC4xNCwwLjA2LTAuMjMsMC4yLTAuMjIsMC4zNWwwLjE0LDAuODEgICAgIGMwLjAzLDAuMTQsMC4xNSwwLjI1LDAuMjksMC4yOGwwLjk4LTAuMDljMC4zNCwwLDAuNDUsMC4xLDAuNTIsMC4yOGMwLjExLDAuMTYsMC4yMSwwLjMzLDAuMywwLjVjMC4xNiwwLjE3LDAuMTksMC40MiwwLjA3LDAuNjIgICAgIGwtMC41NCwwLjgxYy0wLjA1LDAuMTcsMCwwLjM0LDAuMTMsMC40NmwwLjU5LDAuNDZjMC4xMywwLjExLDAuMzIsMC4xMSwwLjQ2LDBsMC42MS0wLjc2YzAuMTUtMC4xOCwwLjQtMC4yNSwwLjYyLTAuMTggICAgIGwwLjUyLDAuMTVjMC4yMywwLDAuMzUsMC4xMSwwLjQ2LDAuNDZsMC4yNSwwLjkyIE03LjI2LDYxLjU2YzAuMTIsMS4wNi0wLjYsMi4wNC0xLjY2LDIuMjJjLTEuMDIsMC4yLTItMC40Ni0yLjItMS40OCAgICAgYzAsMCwwLDAsMCwwYzAtMC4wNi0wLjAxLTAuMTItMC4wMi0wLjE4Yy0wLjE0LTEuMDMsMC41Ny0xLjk5LDEuNi0yLjE2YzEuMDYtMC4yMSwyLjA4LDAuNDgsMi4yOSwxLjU0YzAsMCwwLDAsMCwwLjAxdjAuMDQiLz4mI3hhOwkJPC9nPiYjeGE7CQk8ZyBpZD0iZ3JvdXA2MjItNSIgdHJhbnNmb3JtPSJ0cmFuc2xhdGUoMC4xNDc2MzUsLTAuMjA4OTE1KSI+JiN4YTsJCQk8dGl0bGUgaWQ9InRpdGxlMjQwOTQiPkF1dG9tYXRpb248L3RpdGxlPiYjeGE7CQkJPGcgaWQ9Imdyb3VwNjIzLTYiIHRyYW5zZm9ybT0idHJhbnNsYXRlKDcuNDMzMDYsLTIuODMyMzgpIj4mI3hhOwkJCQk8dGl0bGUgaWQ9InRpdGxlMjQwOTYiPlNoZWV0LjYyMzwvdGl0bGU+JiN4YTsJCQkJPGcgaWQ9InNoYXBlNjI0LTciPiYjeGE7CQkJCQk8dGl0bGUgaWQ9InRpdGxlMjQwOTgiPlNoZWV0LjYyNDwvdGl0bGU+JiN4YTsJCQkJCTxwYXRoIGlkPSJwYXRoMjQxMDAiIGlua3NjYXBlOmNvbm5lY3Rvci1jdXJ2YXR1cmU9IjAiIHN0eWxlPSJmaWxsLXJ1bGU6ZXZlbm9kZDtjbGlwLXJ1bGU6ZXZlbm9kZDtmaWxsOiM1NTZBOEE7IiBkPSIgICAgICAgTTIyLjEsNTQuODZjMC0wLjI0LTAuMDItMC40Ni0wLjAzLTAuNzFsMi40LTEuMzNjLTAuMTMtMC44LTAuMzMtMS41OC0wLjYyLTIuMzFsLTIuNzQsMC4wNGMtMC4yMi0wLjQyLTAuNDUtMC44NC0wLjcxLTEuMjMgICAgICAgbDEuNDItMi4zN2MtMC41Mi0wLjYxLTEuMDgtMS4xOC0xLjY5LTEuNjhsLTEuNCwwLjgzbC0wLjU4LDAuODdsLTEuMjcsMS44N2MxLjgsMS40LDIuOTUsMy41NiwyLjk1LDYuMDIgICAgICAgYzAsNC4yLTMuNCw3LjYxLTcuNiw3LjYxcy03LjYxLTMuNDEtNy42MS03LjYxYzAtMy43NywyLjczLTYuODgsNi4zMi03LjQ5bDAuNTgtMi4zNWwtMS4zNC0yLjQxICAgICAgIGMtMC44LDAuMTMtMS41NiwwLjM1LTIuMjksMC42MmwwLjA0LDIuNzZjLTAuNDIsMC4yLTAuODQsMC40My0xLjIzLDAuNjlsLTIuMzctMS40Yy0wLjYsMC40OS0xLjE2LDEuMDYtMS42OCwxLjY4bDEuNDIsMi4zNiAgICAgICBjLTAuMjcsMC4zOS0wLjQ5LDAuODEtMC43LDEuMjRsLTIuNzYtMC4wNUMwLjM0LDUxLjI1LDAuMTMsNTIuMDIsMCw1Mi44MmwyLjQsMS4zNGMtMC4wMiwwLjI0LTAuMDMsMC40Ny0wLjAzLDAuNyAgICAgICBjMCwwLjI0LDAuMDEsMC40NywwLjAzLDAuNzFMMCw1Ni45YzAuMTMsMC44LDAuMzQsMS41OCwwLjYyLDIuMzJsMi43NS0wLjA2YzAuMjEsMC40NCwwLjQzLDAuODUsMC43LDEuMjRsLTEuNDIsMi4zNyAgICAgICBjMC41MiwwLjYxLDEuMDgsMS4xOCwxLjY4LDEuNjlsMi4zNy0xLjQyYzAuMzksMC4yNywwLjgxLDAuNSwxLjIzLDAuN0w3Ljg5LDY2LjVjMC43NCwwLjI4LDEuNDksMC40OCwyLjI5LDAuNjFsMS4zNS0yLjQxICAgICAgIGMwLjIzLDAuMDMsMC40NSwwLjA0LDAuNywwLjA0YzAuMjQsMCwwLjQ3LTAuMDIsMC43LTAuMDRsMS4zMywyLjQxYzAuOC0wLjEzLDEuNTgtMC4zNCwyLjMxLTAuNjFsLTAuMDQtMi43NiAgICAgICBjMC40My0wLjIsMC44NC0wLjQ0LDEuMjQtMC43bDIuMzYsMS40MmMwLjYtMC41MSwxLjE3LTEuMDgsMS42OS0xLjY5TDIwLjQsNjAuNGMwLjI2LTAuMzksMC40OS0wLjgxLDAuNy0xLjI0bDIuNzUsMC4wNiAgICAgICBjMC4yOC0wLjc0LDAuNDgtMS41MiwwLjYyLTIuMzJsLTIuNDEtMS4zM0MyMi4wOCw1NS4zMiwyMi4xLDU1LjA5LDIyLjEsNTQuODZ6Ii8+JiN4YTsJCQkJPC9nPiYjeGE7CQkJPC9nPiYjeGE7CQkJPGcgaWQ9Imdyb3VwNjI1LTkiIHRyYW5zZm9ybT0idHJhbnNsYXRlKDguOTIzNjUsLTguMzYyMTMpIj4mI3hhOwkJCQk8dGl0bGUgaWQ9InRpdGxlMjQxMDQiPlNoZWV0LjYyNTwvdGl0bGU+JiN4YTsJCQkJPGcgaWQ9InNoYXBlNjI2LTEwIj4mI3hhOwkJCQkJPHRpdGxlIGlkPSJ0aXRsZTI0MTA2Ij5TaGVldC42MjY8L3RpdGxlPiYjeGE7CQkJCQk8cGF0aCBpZD0icGF0aDI0MTA4IiBpbmtzY2FwZTpjb25uZWN0b3ItY3VydmF0dXJlPSIwIiBzdHlsZT0iZmlsbC1ydWxlOmV2ZW5vZGQ7Y2xpcC1ydWxlOmV2ZW5vZGQ7ZmlsbDojNTU2QThBOyIgZD0iTTAsNjYuNiAgICAgICBjMC4xLDAuMTcsMC4yMSwwLjM0LDAuMzIsMC41MWwwLjA1LTAuMTNMMCw2Ni42eiIvPiYjeGE7CQkJCTwvZz4mI3hhOwkJCTwvZz4mI3hhOwkJCTxnIGlkPSJncm91cDYyNy0xMiIgdHJhbnNmb3JtPSJ0cmFuc2xhdGUoMTYuOTYwMywtOS40Mjc1KSI+JiN4YTsJCQkJPHRpdGxlIGlkPSJ0aXRsZTI0MTEyIj5TaGVldC42Mjc8L3RpdGxlPiYjeGE7CQkJCTxnIGlkPSJzaGFwZTYyOC0xMyI+JiN4YTsJCQkJCTx0aXRsZSBpZD0idGl0bGUyNDExNCI+U2hlZXQuNjI4PC90aXRsZT4mI3hhOwkJCQkJPHBhdGggaWQ9InBhdGgyNDExNiIgaW5rc2NhcGU6Y29ubmVjdG9yLWN1cnZhdHVyZT0iMCIgc3R5bGU9ImZpbGwtcnVsZTpldmVub2RkO2NsaXAtcnVsZTpldmVub2RkO2ZpbGw6Izk5NkRBRDsiIGQ9IiAgICAgICBNNC4zLDQ3LjY0bC0wLjQ2LDEuNDRMMy4wNSw1MS42bC0wLjM4LDEuMmwtMC4zMywxLjA2bC0yLjI5LDcuMjhDMCw2MS4yOCwwLjA3LDYxLjQsMC4yMyw2MS40aDIuMTEgICAgICAgYzAuMDcsMCwwLjEzLDAuMDEsMC4xNSwwLjA1YzAuMDUsMC4wNSwwLjA2LDAuMTIsMC4wNCwwLjJsLTIuMTksNS4yOWMtMC4wNiwwLjE1LTAuMDIsMC4xNywwLjA4LDAuMDVsNi45MS03LjgzICAgICAgIGMwLjExLTAuMTIsMC4wNi0wLjIxLTAuMDktMC4yMWwtMi4yNywwLjAxbC0wLjQxLDAuMDFjLTAuMTUsMC0wLjIzLTAuMTEtMC4xNS0wLjI0bDIuMTUtMy44NGwwLjUzLTAuOTFsMC41OC0xLjA2bDEuMjUtMi4yMiAgICAgICBsMC43Mi0xLjNDOC4wMyw0OC40Nyw2LjIzLDQ3Ljg2LDQuMyw0Ny42NHoiLz4mI3hhOwkJCQk8L2c+JiN4YTsJCQk8L2c+JiN4YTsJCTwvZz4mI3hhOwk8L2c+JiN4YTs8L2c+JiN4YTs8L3N2Zz4=;" vertex="1" parent="1">
          <mxGeometry x="253.89" y="240" width="66.21" height="60" as="geometry" />
        </mxCell>
      </root>
    </mxGraphModel>
  </diagram>
</mxfile>
